# xmcd
#
# Track frame offsets: 
#        150
#        16380
#        35318
#        49968
#        65803
#        81483
#        96107
#        111983
#        133695
#        147954
#
# Disc length: 2213 seconds
#
# Revision: 1
# Processed by: cddbd v1.5.2PL0 Copyright (c) Steve Scherf et al.
# Submitted via: ExactAudioCopy v1.0b3
#
DISCID=9108a30a
DTITLE=Sam Smith - The Thrill of It All
DYEAR=2017
DGENRE=Pop
TTITLE0=Too Good at Goodbyes
TTITLE1=Say It First
TTITLE2=One Last Song
TTITLE3=Midnight Train
TTITLE4=Burning
TTITLE5=Him
TTITLE6=Baby, You Make Me Crazy
TTITLE7=No Peace (feat. YEBBA)
TTITLE8=Palace
TTITLE9=Pray
EXTD=
EXTT0=
EXTT1=
EXTT2=
EXTT3=
EXTT4=
EXTT5=
EXTT6=
EXTT7=
EXTT8=
EXTT9=
PLAYORDER=
